<?xml version="1.0" encoding="utf-8"?>
<!-- Generator: Adobe Illustrator 25.3.1, SVG Export Plug-In . SVG Version: 6.00 Build 0)  -->
<svg version="1.1" id="Layer_1" xmlns="http://www.w3.org/2000/svg" xmlns:xlink="http://www.w3.org/1999/xlink" x="0px" y="0px"
	 viewBox="0 0 421.1 354.7" style="enable-background:new 0 0 421.1 354.7;" xml:space="preserve">
<style type="text/css">
	.st0{opacity:0.29;fill:#E7694C;enable-background:new    ;}
	.st1{opacity:0.73;fill:#E7694C;enable-background:new    ;}
	.st2{fill:#E7694C;}
	.st3{fill:#565656;}
	.st4{fill:#7E7E7E;}
	.st5{opacity:0.55;fill:#565656;enable-background:new    ;}
</style>
<g id="Layer_2_1_">
	<g id="Layer_1-2">
		<g id="Camada_2">
			<g id="Camada_2-2">
				<g id="Logo_SVG">
					<path id="Caminho_1-2" class="st0" d="M95.8,101.5c0,0-23,33.3-17.9,125.5l-41.4-44.8L95.8,101.5z"/>
					<path id="Caminho_2-2" class="st1" d="M149.1,46.3l58.9,59c-38,53.8-68.3,112.7-89.9,175l-21.3-26.6
						C96.8,253.7,91.8,77,149.1,46.3z"/>
					<path id="Caminho_3-2" class="st2" d="M238.2,133.6c0,0-72.1,70.8-105.4,165.5l20.8,24.9l126.1-151.1L238.2,133.6z"/>
					<path id="Caminho_4-2" class="st3" d="M238.2,133.6L355,121.1l29.6,36.1l-104.9,15.5L238.2,133.6z"/>
					<path id="Caminho_5-2" class="st4" d="M279.7,172.5l104.9-15.4L255.6,303l-102.7,20L279.7,172.5z"/>
					<path id="Caminho_6-2" class="st5" d="M149.1,46.3l121.6-15.5l49.9,60.5l-112.5,14.1L149.1,46.3z"/>
				</g>
			</g>
		</g>
	</g>
</g>
</svg>
