<?xml version="1.0" encoding="utf-8"?>
<svg viewBox="161.125 112.953 121.719 55.484" xmlns="http://www.w3.org/2000/svg">
  <path d="M 169.099 149.855 C 171.912 149.855 173.319 147.185 173.319 141.845 C 173.319 138.632 172.846 136.388 171.899 135.115 C 171.219 134.215 170.286 133.765 169.099 133.765 C 166.599 133.765 165.219 135.845 164.959 140.005 C 164.932 140.572 164.919 141.168 164.919 141.795 C 164.919 142.422 164.939 143.022 164.979 143.595 C 165.012 144.175 165.076 144.762 165.169 145.355 C 165.262 145.942 165.406 146.502 165.599 147.035 C 165.786 147.568 166.032 148.035 166.339 148.435 C 167.026 149.382 167.946 149.855 169.099 149.855 Z M 169.099 131.815 C 173.592 131.815 175.839 135.158 175.839 141.845 C 175.839 143.758 175.696 145.222 175.409 146.235 C 175.129 147.255 174.822 148.078 174.489 148.705 C 174.162 149.332 173.749 149.868 173.249 150.315 C 172.189 151.282 170.806 151.765 169.099 151.765 C 166.646 151.765 164.862 150.752 163.749 148.725 C 162.856 147.092 162.409 144.798 162.409 141.845 C 162.409 139.905 162.542 138.415 162.809 137.375 C 163.082 136.335 163.392 135.502 163.739 134.875 C 164.079 134.255 164.496 133.718 164.989 133.265 C 166.056 132.298 167.426 131.815 169.099 131.815 ZM 178.425 149.995 L 182.745 144.535 L 178.815 139.615 C 178.669 139.422 178.595 139.238 178.595 139.065 C 178.595 138.885 178.632 138.732 178.705 138.605 C 178.779 138.472 178.872 138.358 178.985 138.265 C 179.225 138.052 179.452 137.945 179.665 137.945 C 180.065 137.945 180.395 138.098 180.655 138.405 L 184.265 143.155 L 187.955 138.335 C 188.169 138.075 188.419 137.945 188.705 137.945 C 188.985 137.945 189.225 138.035 189.425 138.215 C 189.625 138.388 189.725 138.588 189.725 138.815 C 189.725 139.042 189.655 139.235 189.515 139.395 L 185.585 144.505 L 189.795 149.855 C 189.942 150.042 190.015 150.218 190.015 150.385 C 190.015 150.552 189.985 150.698 189.925 150.825 C 189.865 150.958 189.775 151.072 189.655 151.165 C 189.395 151.378 189.149 151.485 188.915 151.485 C 188.535 151.485 188.215 151.332 187.955 151.025 L 184.025 145.845 L 180.055 151.095 C 179.862 151.355 179.655 151.485 179.435 151.485 C 179.209 151.485 179.032 151.455 178.905 151.395 C 178.772 151.335 178.659 151.272 178.565 151.205 C 178.352 151.012 178.245 150.805 178.245 150.585 C 178.245 150.358 178.305 150.162 178.425 149.995 ZM 197.909 133.975 L 192.559 133.975 C 192.233 133.975 191.979 133.875 191.799 133.675 C 191.619 133.475 191.529 133.245 191.529 132.985 C 191.529 132.725 191.619 132.495 191.799 132.295 C 191.979 132.095 192.233 131.995 192.559 131.995 L 205.609 131.995 C 205.963 131.995 206.223 132.095 206.389 132.295 C 206.549 132.495 206.629 132.718 206.629 132.965 C 206.629 133.212 206.549 133.442 206.389 133.655 C 206.223 133.868 205.963 133.975 205.609 133.975 L 200.359 133.975 L 200.359 150.315 C 200.359 150.882 200.099 151.248 199.579 151.415 C 199.439 151.462 199.256 151.485 199.029 151.485 C 198.803 151.485 198.559 151.385 198.299 151.185 C 198.039 150.985 197.909 150.695 197.909 150.315 L 197.909 133.975 ZM 210.284 137.945 C 210.964 137.945 211.304 138.288 211.304 138.975 L 211.304 140.175 C 211.897 138.475 213.141 137.625 215.034 137.625 C 215.387 137.625 215.657 137.725 215.844 137.925 C 216.031 138.125 216.124 138.345 216.124 138.585 C 216.124 138.818 216.037 139.032 215.864 139.225 C 215.684 139.412 215.347 139.505 214.854 139.505 C 214.354 139.505 213.874 139.605 213.414 139.805 C 212.954 140.005 212.571 140.282 212.264 140.635 C 211.624 141.415 211.304 142.455 211.304 143.755 L 211.304 150.455 C 211.304 150.788 211.187 151.042 210.954 151.215 C 210.721 151.395 210.497 151.485 210.284 151.485 C 210.071 151.485 209.897 151.468 209.764 151.435 C 209.637 151.395 209.527 151.342 209.434 151.275 C 209.221 151.082 209.114 150.808 209.114 150.455 L 209.114 138.975 C 209.114 138.642 209.224 138.388 209.444 138.215 C 209.671 138.035 209.951 137.945 210.284 137.945 ZM 225.198 143.225 L 226.758 143.265 L 226.758 142.095 C 226.758 140.248 225.718 139.325 223.638 139.325 C 222.671 139.325 221.975 139.408 221.548 139.575 C 221.055 139.762 220.581 139.982 220.128 140.235 C 219.681 140.482 219.358 140.605 219.158 140.605 C 218.958 140.605 218.781 140.528 218.628 140.375 C 218.475 140.222 218.398 140.038 218.398 139.825 C 218.398 139.612 218.491 139.422 218.678 139.255 C 219.811 138.168 221.488 137.625 223.708 137.625 C 226.188 137.625 227.785 138.475 228.498 140.175 C 228.758 140.768 228.888 141.465 228.888 142.265 L 228.848 150.525 C 228.848 150.858 228.741 151.102 228.528 151.255 C 228.315 151.408 228.075 151.485 227.808 151.485 C 227.535 151.485 227.291 151.408 227.078 151.255 C 226.865 151.102 226.758 150.872 226.758 150.565 L 226.758 149.285 C 226.191 150.492 225.165 151.272 223.678 151.625 C 223.205 151.718 222.691 151.765 222.138 151.765 C 221.578 151.765 221.015 151.678 220.448 151.505 C 219.881 151.325 219.385 151.058 218.958 150.705 C 218.065 149.998 217.618 149.005 217.618 147.725 C 217.618 144.725 220.145 143.225 225.198 143.225 Z M 226.758 146.065 L 226.758 144.855 C 226.358 144.882 225.905 144.895 225.398 144.895 C 224.885 144.895 224.375 144.905 223.868 144.925 C 223.361 144.952 222.865 145.012 222.378 145.105 C 221.898 145.198 221.468 145.342 221.088 145.535 C 220.235 146.002 219.808 146.708 219.808 147.655 C 219.808 148.415 220.105 149.032 220.698 149.505 C 221.171 149.858 221.858 150.058 222.758 150.105 C 223.845 150.105 224.765 149.762 225.518 149.075 C 226.298 148.388 226.711 147.385 226.758 146.065 ZM 232.144 144.715 C 232.144 142.708 232.7 141.042 233.814 139.715 C 235.014 138.322 236.607 137.625 238.594 137.625 C 239.587 137.625 240.39 137.745 241.004 137.985 C 242.164 138.432 242.744 138.902 242.744 139.395 C 242.744 139.608 242.674 139.798 242.534 139.965 C 242.387 140.132 242.227 140.215 242.054 140.215 C 241.874 140.215 241.724 140.192 241.604 140.145 C 240.684 139.625 239.827 139.358 239.034 139.345 C 238.247 139.332 237.58 139.455 237.034 139.715 C 236.494 139.975 236.034 140.332 235.654 140.785 C 234.847 141.772 234.444 143.068 234.444 144.675 C 234.444 146.142 234.754 147.372 235.374 148.365 C 236.1 149.525 237.234 150.105 238.774 150.105 C 239.694 150.105 240.72 149.808 241.854 149.215 C 242.254 149.075 242.544 149.098 242.724 149.285 C 242.904 149.478 242.994 149.698 242.994 149.945 C 242.994 150.192 242.84 150.432 242.534 150.665 C 242.22 150.905 241.84 151.108 241.394 151.275 C 239.267 151.982 237.377 151.958 235.724 151.205 C 234.19 150.492 233.127 149.238 232.534 147.445 C 232.274 146.592 232.144 145.682 232.144 144.715 ZM 255.317 151.135 L 248.627 144.185 L 248.627 150.385 C 248.627 150.738 248.507 151.012 248.267 151.205 C 248.034 151.392 247.78 151.485 247.507 151.485 C 247.234 151.485 246.987 151.395 246.767 151.215 C 246.54 151.042 246.427 150.765 246.427 150.385 L 246.427 133.095 C 246.427 132.735 246.544 132.462 246.777 132.275 C 247.017 132.088 247.237 131.995 247.437 131.995 C 247.637 131.995 247.8 132.018 247.927 132.065 C 248.06 132.112 248.174 132.182 248.267 132.275 C 248.507 132.508 248.627 132.782 248.627 133.095 L 248.627 143.435 L 254.787 138.265 C 255 138.052 255.237 137.945 255.497 137.945 C 255.757 137.945 255.984 138.028 256.177 138.195 C 256.364 138.362 256.457 138.528 256.457 138.695 C 256.457 139.022 256.364 139.255 256.177 139.395 L 250.887 143.795 L 256.847 149.965 C 257.014 150.172 257.097 150.348 257.097 150.495 C 257.097 150.635 257.067 150.765 257.007 150.885 C 256.947 150.998 256.87 151.105 256.777 151.205 C 256.537 151.392 256.294 151.485 256.047 151.485 C 255.8 151.485 255.557 151.368 255.317 151.135 ZM 271.944 144.295 C 271.944 144.502 271.874 144.682 271.734 144.835 C 271.587 144.988 271.36 145.065 271.054 145.065 L 261.274 145.065 C 261.32 146.818 261.78 148.085 262.654 148.865 C 263.574 149.692 264.637 150.105 265.844 150.105 C 267.124 150.105 268.484 149.632 269.924 148.685 C 270.11 148.545 270.304 148.475 270.504 148.475 C 270.704 148.475 270.864 148.545 270.984 148.685 C 271.104 148.825 271.164 148.968 271.164 149.115 C 271.164 149.395 271.067 149.628 270.874 149.815 C 269.48 151.115 267.744 151.765 265.664 151.765 C 263.73 151.765 262.16 151.142 260.954 149.895 C 259.634 148.542 258.974 146.815 258.974 144.715 C 258.974 142.755 259.527 141.112 260.634 139.785 C 261.84 138.345 263.447 137.625 265.454 137.625 C 267.56 137.625 269.18 138.265 270.314 139.545 C 271.354 140.725 271.897 142.308 271.944 144.295 Z M 261.344 143.655 L 269.784 143.655 C 269.684 142.328 269.28 141.275 268.574 140.495 C 267.867 139.715 266.84 139.325 265.494 139.325 C 264.314 139.325 263.344 139.752 262.584 140.605 C 261.85 141.432 261.437 142.448 261.344 143.655 ZM 276.444 137.945 C 277.124 137.945 277.464 138.288 277.464 138.975 L 277.464 140.175 C 278.057 138.475 279.301 137.625 281.194 137.625 C 281.547 137.625 281.817 137.725 282.004 137.925 C 282.191 138.125 282.284 138.345 282.284 138.585 C 282.284 138.818 282.197 139.032 282.024 139.225 C 281.844 139.412 281.507 139.505 281.014 139.505 C 280.514 139.505 280.034 139.605 279.574 139.805 C 279.114 140.005 278.731 140.282 278.424 140.635 C 277.784 141.415 277.464 142.455 277.464 143.755 L 277.464 150.455 C 277.464 150.788 277.347 151.042 277.114 151.215 C 276.881 151.395 276.657 151.485 276.444 151.485 C 276.231 151.485 276.057 151.468 275.924 151.435 C 275.797 151.395 275.687 151.342 275.594 151.275 C 275.381 151.082 275.274 150.808 275.274 150.455 L 275.274 138.975 C 275.274 138.642 275.384 138.388 275.604 138.215 C 275.831 138.035 276.111 137.945 276.444 137.945 Z" transform="matrix(1, 0, 0, 1, 0, 0)" style="fill: rgb(255, 255, 255); white-space: pre;"/>
  <rect x="-224.889" y="31.793" width="2.992" height="16.389" style="fill: rgb(255, 255, 255);" transform="matrix(-0.920505, -0.390731, -0.390731, 0.920505, -20.944157, 17.289856)"/>
</svg>